<svg xmlns="http://www.w3.org/2000/svg" version="1.1" xmlns:xlink="http://www.w3.org/1999/xlink" xmlns:svgjs="http://svgjs.com/svgjs"

 width="25" height="25" x="0" y="0" viewBox="0 0 128 128" style="enable-background:new 0 0 512 512" xml:space="preserve" class=""><g><g xmlns="http://www.w3.org/2000/svg" fill="rgb(0,0,0)"><path d="m67.9 23.608a31.318 31.318 0 1 0 0 44.29 31.111 31.111 0 0 0 0-44.29zm-2.476 41.816a27.818 27.818 0 1 1 0-39.341 27.636 27.636 0 0 1 0 39.341z" fill="#000000" data-original="#000000" class=""></path><path d="m65.372 35.621a22.118 22.118 0 0 0 -15.787-11.609 1.75 1.75 0 0 0 -.6 3.447 18.617 18.617 0 0 1 13.282 9.769 1.75 1.75 0 1 0 3.109-1.607z" 

fill="#000000" data-original="#000000" class=""></path><path d="m41.9 24.015a22.126 22.126 0 0 0 -5.118 1.562 1.75 1.75 0 1 0 1.422 3.2 18.581 18.581 0 0 1 4.3-1.313 1.75 1.75 0 1 0 -.608-3.447z" fill="#000000" data-original="#000000" class=""></path><path d="m119.837 102.425-18.932-18.932-3.078-3.078a12.306 12.306 0 0 0 -11.753-3.207l-7.092-7.092a41.2 41.2 0 0 0 -62.359-53.493 41.2 41.2 0 0 0 53.491 62.357l7.086 7.088a12.361 12.361 0 0 0 -.394 3.052 12.234 12.234 0 0 0 3.606 8.706l3.077 3.076 18.931 18.931a12.312 12.312 0 0 0 17.412-17.412zm-100.737-30.016a37.7 37.7 0 1 1 53.309-53.309 37.7 37.7 0 0 1 -53.309 53.309zm53.754 4.36c.692-.605 1.373-1.226 2.032-1.885s1.279-1.339 1.886-2.031l5.828 5.833a12.258 12.258 0 0 0 -2.189 1.728 12.445 12.445 0 0 0 -1.73 2.187zm7.454 12.351a8.816 8.816 0 0 1 15.044-6.231l1.84 1.84-12.462 12.463-1.841-1.841a8.755 8.755 0 0 1 -2.581-6.231zm37.054 28.243a8.825 8.825 0 0 1 -12.463 0l-17.7-17.7 12.468-12.463 17.695 17.7a8.823 8.823 0 0 1 0 12.463z" fill="#000000" data-original="#000000" class=""></path></g></g></svg>